<?xml version="1.0" standalone="no"?>
<!DOCTYPE svg PUBLIC "-//W3C//DTD SVG 20010904//EN"
 "http://www.w3.org/TR/2001/REC-SVG-20010904/DTD/svg10.dtd">
<svg version="1.0" xmlns="http://www.w3.org/2000/svg"
 width="1060.000000pt" height="1060.000000pt" viewBox="0 0 1060.000000 1060.000000"
 preserveAspectRatio="xMidYMid meet">
<metadata>
Generated by Potrace 1.14, written by Peter Selinger 2001-2017
</metadata>
<g transform="translate(0.000000,1060.000000) scale(0.100000,-0.100000)"
fill="#000000" stroke="none">
<path d="M5005 10209 c-736 -44 -1461 -257 -2115 -621 -157 -88 -462 -290
-603 -401 -681 -533 -1205 -1216 -1531 -1994 -461 -1103 -504 -2354 -120
-3493 493 -1459 1669 -2621 3134 -3098 338 -110 636 -174 1015 -219 214 -25
826 -25 1040 0 273 32 511 76 745 138 1146 303 2154 1019 2819 2004 801 1186
1047 2641 681 4030 -184 699 -510 1326 -990 1905 -123 149 -421 450 -574 580
-973 827 -2225 1246 -3501 1169z m471 -370 c55 -51 54 -147 -1 -199 -34 -32
-122 -35 -156 -5 -27 25 -49 75 -49 113 0 35 36 92 70 110 36 19 106 9 136
-19z m-1351 -21 c6 -23 3 -27 -27 -33 -84 -19 -82 -5 -28 -177 27 -83 48 -153
47 -154 -6 -4 -70 -24 -71 -22 -1 2 -23 69 -49 151 -30 90 -53 147 -61 147 -8
0 -33 -7 -56 -15 -24 -8 -45 -14 -46 -12 -2 2 -6 17 -9 33 l-6 29 143 46 c79
25 146 43 150 40 4 -3 10 -18 13 -33z m370 -105 c15 -82 28 -152 29 -158 0 -5
-13 -11 -30 -13 l-31 -3 -30 153 c-16 84 -28 156 -26 161 2 4 17 7 32 7 l29 0
27 -147z m729 125 c14 -13 26 -32 28 -43 5 -30 -49 -34 -69 -5 -9 13 -23 20
-36 18 -54 -8 -62 -117 -10 -141 23 -10 28 -8 47 16 14 18 31 27 50 27 24 0
26 -3 21 -22 -4 -13 -20 -35 -36 -50 -49 -46 -135 -35 -164 21 -30 59 -13 164
32 190 34 20 110 13 137 -11z m406 1 c3 -4 12 -4 20 1 20 13 67 12 91 0 64
-35 63 -178 -2 -224 -30 -20 -78 -21 -107 0 -22 15 -22 14 -22 -25 0 -58 -8
-71 -42 -71 l-31 0 6 58 c4 31 9 102 12 157 8 127 8 127 42 119 16 -4 30 -11
33 -15z m-652 -24 c12 -15 20 -31 17 -36 -9 -14 -55 -11 -71 6 -19 19 -48 19
-63 1 -16 -19 6 -31 67 -39 55 -7 82 -31 82 -72 0 -52 -38 -79 -111 -80 -54 0
-63 3 -85 28 -13 16 -22 33 -19 38 10 14 61 10 75 -6 16 -19 41 -19 66 0 25
19 9 30 -58 39 -75 10 -106 54 -77 107 28 53 136 61 177 14z m1360 -2 c-2 -20
-9 -28 -23 -28 -11 0 -21 -8 -23 -17 -2 -13 3 -18 18 -18 16 0 20 -4 16 -16
-3 -9 -6 -19 -6 -24 0 -4 -9 -6 -19 -3 -21 5 -22 5 -46 -108 -16 -75 -16 -75
-46 -71 -33 5 -33 5 -14 92 19 85 19 110 0 110 -17 0 -18 2 -9 24 3 9 15 16
25 16 11 0 19 7 19 16 0 38 20 54 66 54 44 0 45 -1 42 -27z m-365 3 c47 -20
69 -49 75 -102 l5 -47 -69 7 c-38 4 -79 9 -91 13 -17 4 -23 1 -23 -11 0 -37
68 -74 85 -46 3 6 22 10 41 10 44 0 45 -23 2 -50 -39 -23 -76 -25 -122 -6 -45
19 -66 52 -66 104 0 58 24 107 63 126 40 19 59 20 100 2z m-1237 -27 c22 -20
51 -86 42 -94 -2 -2 -37 -9 -78 -16 -85 -13 -99 -21 -80 -44 16 -19 76 -20 87
-1 12 20 73 32 73 14 0 -24 -32 -60 -66 -74 -44 -18 -68 -18 -111 3 -88 42
-82 205 9 232 46 14 97 6 124 -20z m-391 -55 c34 -16 71 -74 62 -98 -3 -6 -34
-18 -69 -25 -88 -17 -100 -26 -69 -51 29 -25 33 -25 68 3 32 28 83 43 83 26 0
-21 -33 -67 -58 -81 -14 -7 -46 -13 -73 -13 -58 0 -94 29 -110 88 -20 76 10
137 77 157 42 12 52 12 89 -6z m2145 -20 c67 -27 90 -104 54 -180 -44 -92
-189 -80 -221 18 -26 79 33 175 109 177 10 1 36 -6 58 -15z m174 -54 c18 -7
24 -14 19 -26 -5 -14 -3 -15 15 -5 33 18 62 14 62 -8 0 -40 -10 -50 -45 -44
-29 5 -35 2 -48 -23 -8 -16 -20 -47 -26 -69 -7 -22 -14 -45 -16 -52 -3 -9 -12
-10 -35 -1 -18 6 -29 16 -27 23 3 6 19 58 37 113 17 56 33 102 35 102 2 0 15
-4 29 -10z m491 -31 c53 -25 80 -56 97 -110 25 -85 -35 -219 -116 -258 -56
-28 -101 -26 -164 5 -82 41 -114 111 -92 203 35 149 153 217 275 160z m-3406
-267 l1 -132 -32 -20 c-41 -25 -44 -25 -52 3 -3 14 0 26 9 33 28 21 15 49 -70
146 -79 89 -84 98 -66 107 35 19 50 12 103 -54 28 -36 53 -65 55 -65 3 0 2 8
-1 18 -2 9 -8 49 -11 88 l-7 72 29 9 c27 10 28 9 35 -31 3 -23 7 -101 7 -174z
m-232 72 c13 -8 29 -27 37 -43 l15 -29 -82 -39 -82 -39 26 -17 c31 -21 74 -10
83 21 5 16 44 42 61 42 9 0 5 -39 -6 -62 -26 -56 -124 -87 -174 -54 -32 21
-65 86 -65 130 0 87 110 140 187 90z m2153 5 c1317 -115 2515 -864 3204 -2004
296 -490 487 -1038 566 -1625 27 -198 38 -659 21 -865 -101 -1210 -696 -2286
-1668 -3018 -354 -267 -769 -482 -1203 -624 -227 -74 -541 -145 -745 -168
l-60 -7 35 31 c40 34 67 44 195 67 110 20 143 36 65 32 -43 -2 -55 0 -55 12
-1 21 14 29 55 31 24 1 28 3 13 6 -13 2 -23 9 -23 14 0 5 -6 9 -13 9 -7 0 -22
6 -33 14 -19 14 -19 15 5 40 28 30 28 29 -23 50 -36 15 -38 18 -32 47 3 17 15
42 26 56 11 14 17 29 15 34 -3 4 4 13 15 19 14 8 19 18 16 35 -3 15 0 25 7 25
7 0 6 4 -3 10 -8 5 -10 10 -5 10 6 0 4 4 -4 9 -26 16 -2 28 51 25 l53 -4 -59
14 c-33 7 -67 11 -77 9 -9 -3 -20 0 -23 6 -4 6 -17 10 -29 10 -17 -1 -18 -2
-4 -6 9 -2 17 -8 17 -12 0 -8 -118 -33 -157 -33 -27 0 -46 19 -38 40 2 6 1 12
-4 12 -5 0 -14 14 -21 30 -7 17 -15 30 -19 30 -3 -1 -24 -23 -46 -50 -34 -42
-44 -48 -72 -46 -36 2 -48 10 -57 43 -5 15 -1 28 15 44 17 17 20 26 11 39 -6
10 -9 35 -7 56 3 22 6 71 9 111 l5 72 -66 -40 c-36 -22 -72 -39 -82 -37 -10 2
-44 59 -86 145 -59 119 -73 141 -90 138 -11 -1 -53 3 -94 11 -89 17 -345 35
-349 24 -1 -4 -14 -5 -27 -2 -15 2 -25 0 -25 -7 0 -8 20 -12 58 -12 125 2 336
-10 347 -19 7 -5 28 -11 48 -12 32 -3 36 -6 31 -23 -8 -25 -113 -226 -125
-239 -9 -10 -44 4 -115 48 l-41 26 3 -74 c1 -40 9 -100 18 -132 8 -32 16 -84
17 -114 2 -30 7 -60 12 -66 4 -7 10 -21 12 -33 3 -17 -1 -21 -25 -21 -23 0
-43 15 -101 80 -40 44 -76 80 -80 80 -4 0 -17 -25 -30 -55 -26 -64 -25 -64
-155 -35 -118 26 -118 26 -108 -8 4 -15 8 -41 10 -58 2 -29 15 -78 35 -131 13
-33 1 -52 -42 -70 -43 -17 -47 -24 -23 -44 11 -9 14 -22 10 -42 -8 -42 34
-106 72 -107 6 0 12 -4 12 -10 0 -5 17 -14 38 -20 20 -5 53 -24 72 -40 l35
-29 -31 -1 c-52 0 -259 38 -429 80 -829 203 -1572 655 -2140 1300 -534 608
-877 1349 -995 2154 -34 234 -43 395 -37 696 7 381 41 628 132 977 142 543
415 1087 768 1530 654 821 1590 1366 2621 1528 134 21 311 38 491 49 90 5 404
-3 535 -15z m1675 -67 c-4 -11 0 -13 16 -9 29 8 85 -16 98 -41 24 -45 8 -118
-36 -164 -47 -49 -114 -46 -155 5 -16 21 -17 21 -39 -26 -24 -50 -33 -55 -62
-33 -17 13 -17 17 14 78 17 34 51 100 76 145 43 79 45 82 69 71 15 -7 23 -17
19 -26z m-4049 -120 c17 -120 17 -123 -2 -137 -10 -8 -26 -14 -34 -14 -8 0
-55 37 -105 83 l-89 83 30 16 31 16 58 -59 c33 -33 60 -58 62 -56 2 2 -3 35
-12 75 -8 40 -15 76 -15 81 0 8 52 41 57 37 1 -1 9 -57 19 -125z m4317 67 c12
-7 23 -13 25 -14 2 -2 -4 -15 -14 -30 -16 -24 -16 -26 2 -39 15 -12 16 -16 5
-30 -7 -8 -22 -14 -32 -13 -27 3 -91 -109 -70 -122 13 -8 7 -51 -7 -51 -21 0
-72 42 -72 59 0 11 18 50 40 88 32 56 36 69 24 76 -21 12 1 50 25 42 12 -4 21
2 29 20 13 29 15 29 45 14z m154 -75 c2 -6 -3 -18 -11 -29 -13 -18 -15 -18
-40 -2 -25 17 -26 18 -10 43 15 22 19 23 37 11 12 -8 22 -18 24 -23z m-4698
-10 c10 -23 9 -28 -9 -41 -28 -20 -25 -46 15 -118 l35 -62 -26 -18 c-14 -9
-27 -15 -28 -13 -2 2 -29 47 -62 102 l-58 99 23 18 c22 18 24 18 37 2 13 -17
13 -17 14 1 0 19 27 56 40 56 4 0 12 -12 19 -26z m4644 -48 c17 -13 14 -20
-44 -115 -34 -56 -64 -101 -68 -101 -3 0 -16 8 -28 18 l-22 17 61 98 c33 53
65 97 72 97 6 0 19 -7 29 -14z m-4763 -135 l62 -94 -23 -18 c-16 -12 -28 -14
-35 -8 -8 7 -14 2 -18 -16 -8 -32 -63 -60 -100 -51 -18 4 -43 31 -81 89 l-55
82 22 17 c13 10 26 18 29 18 4 0 26 -29 49 -65 47 -73 67 -88 93 -74 28 16 20
58 -24 126 -23 35 -40 65 -38 67 12 10 45 25 51 23 3 -1 34 -44 68 -96z m4910
44 c16 -8 36 -25 44 -37 18 -25 21 -83 6 -93 -17 -10 -50 15 -50 38 0 51 -56
64 -89 20 -47 -59 -34 -109 26 -100 22 4 39 0 55 -12 l22 -18 -34 -18 c-71
-36 -160 12 -160 87 0 48 20 88 60 122 36 30 77 33 120 11z m-5256 -46 c32
-26 32 -30 0 -50 -21 -13 -33 -14 -55 -6 -36 14 -75 1 -101 -34 -16 -22 -18
-30 -9 -48 15 -27 29 -26 124 4 43 14 87 25 98 25 12 0 36 -15 55 -34 40 -40
46 -92 14 -143 -47 -78 -175 -119 -232 -73 -35 27 -35 32 3 54 23 13 34 15 42
7 36 -36 141 16 135 67 -5 45 -28 48 -125 18 -96 -29 -121 -27 -156 11 -42 48
-38 119 10 165 63 61 147 76 197 37z m5459 -97 c72 -48 74 -87 7 -178 -27 -38
-50 -75 -50 -82 0 -9 -9 -7 -30 8 -18 13 -27 26 -23 35 4 11 -3 15 -25 15 -44
0 -82 34 -82 75 0 24 7 39 26 54 33 26 54 26 104 1 47 -24 70 -25 70 -5 0 20
-44 47 -64 39 -10 -4 -25 1 -37 12 -19 17 -19 19 -3 31 25 18 74 16 107 -5z
m223 -89 c-7 -17 -189 -241 -196 -242 -3 0 -15 8 -28 19 l-23 19 103 124 c101
123 103 124 126 109 13 -8 21 -21 18 -29z m-5951 -220 c107 -117 107 -117 86
-135 -12 -9 -29 -14 -36 -11 -11 4 -15 -2 -15 -20 0 -35 -43 -67 -91 -67 -96
0 -169 141 -104 205 13 14 33 25 45 25 27 0 25 9 -12 47 -31 32 -31 33 -13 53
10 11 21 20 25 20 4 0 56 -53 115 -117z m6122 -26 c18 -17 35 -46 39 -63 5
-28 0 -38 -55 -96 -34 -36 -61 -71 -61 -77 0 -16 -11 -13 -36 10 -12 12 -20
27 -17 35 4 10 -3 14 -21 14 -34 0 -76 41 -76 73 0 13 9 36 21 51 26 33 65 34
113 1 56 -38 90 -30 59 14 -11 16 -22 21 -38 17 -15 -4 -28 1 -41 15 -18 20
-18 21 1 36 28 21 74 9 112 -30z m136 -135 c13 -14 14 -21 5 -30 -9 -9 -6 -12
14 -12 32 0 78 -51 78 -85 0 -28 -33 -69 -101 -126 l-50 -42 -22 21 -21 22 62
63 c34 34 62 68 62 74 0 16 -29 43 -46 43 -9 0 -42 -25 -75 -57 -58 -55 -59
-56 -79 -38 -11 10 -20 21 -20 25 0 12 154 160 166 160 6 0 18 -8 27 -18z
m-6427 -23 l25 -23 -62 -62 c-60 -61 -61 -62 -39 -74 19 -10 27 -9 49 7 14 11
27 31 29 45 3 27 38 66 48 55 4 -4 7 -24 7 -45 0 -70 -55 -122 -129 -122 -30
0 -45 8 -80 44 -38 38 -44 49 -44 86 0 36 6 48 40 82 38 38 43 40 86 35 28 -3
54 -13 70 -28z m-213 -162 c16 -11 16 -14 1 -35 -12 -17 -23 -22 -39 -18 -29
7 -59 -24 -50 -53 8 -26 61 -71 85 -71 24 0 42 24 39 52 -2 13 4 34 14 48 18
24 18 25 32 6 8 -11 15 -37 15 -59 0 -55 -51 -107 -107 -107 -66 0 -143 72
-143 135 0 72 102 140 153 102z m6850 -46 c11 -9 24 -29 31 -45 l12 -29 35 31
36 31 23 -24 23 -24 -34 -28 c-18 -15 -74 -62 -124 -105 -85 -72 -91 -75 -108
-60 -10 9 -16 24 -14 34 4 12 0 18 -12 18 -23 0 -59 35 -67 65 -14 55 24 116
90 146 44 20 79 16 109 -10z m-6963 -196 c40 -30 75 -57 78 -60 3 -3 -5 -16
-17 -29 l-23 -25 -63 50 c-67 53 -98 61 -115 29 -15 -28 -1 -49 64 -100 61
-46 64 -54 40 -81 -16 -18 -21 -15 -103 48 -47 36 -90 70 -95 74 -13 11 24 51
41 45 9 -4 13 4 13 25 0 39 39 79 78 79 19 0 53 -18 102 -55z m7198 -116 c-2
-4 -31 -28 -66 -53 -69 -51 -81 -68 -62 -91 21 -25 58 -17 119 26 59 42 73 43
91 9 9 -16 -3 -27 -87 -86 l-96 -67 -19 23 c-14 17 -16 26 -7 36 9 11 7 14 -9
14 -28 0 -62 46 -62 85 0 36 9 46 101 110 l64 45 18 -21 c10 -12 16 -25 15
-30z m-7375 -84 c37 -25 78 -50 90 -54 21 -8 21 -9 -10 -40 -17 -17 -34 -44
-38 -61 -7 -32 -47 -70 -75 -70 -10 0 -29 9 -44 21 -30 24 -35 77 -11 119 19
32 19 60 1 60 -22 0 -47 -40 -37 -59 6 -9 3 -23 -6 -38 -15 -22 -17 -23 -34
-7 -38 35 -14 119 44 154 18 11 37 20 42 20 6 0 41 -20 78 -45z m7594 -82 c13
-20 7 -25 -122 -108 -129 -81 -137 -86 -151 -68 -7 10 -13 24 -11 31 2 15 247
173 261 169 5 -2 16 -12 23 -24z m-7742 -147 l76 -95 -16 -31 c-11 -21 -21
-29 -33 -26 -9 3 -64 15 -122 26 -57 12 -106 23 -108 25 -7 6 30 55 42 55 6 0
31 -6 56 -14 110 -33 109 -34 46 37 -53 60 -56 67 -45 91 7 14 16 26 20 26 5
0 43 -42 84 -94z m7794 28 c10 -22 9 -28 -6 -40 -10 -7 -21 -14 -26 -14 -4 0
-5 -11 -1 -24 7 -29 -24 -46 -41 -22 -10 13 -19 10 -66 -18 -39 -23 -54 -38
-54 -55 0 -19 -19 -40 -36 -41 -11 0 -38 70 -33 85 4 9 37 34 75 57 53 31 68
45 64 58 -7 22 22 35 41 19 10 -8 19 -7 36 5 30 21 33 20 47 -10z m-7958 -195
c74 -38 138 -74 142 -79 11 -10 -10 -50 -26 -50 -7 0 -12 -15 -13 -37 -2 -102
-156 -112 -221 -14 -32 47 -29 77 10 116 l34 34 -39 17 c-22 10 -41 21 -44 25
-4 6 15 59 21 59 2 0 63 -32 136 -71z m7968 5 c-9 -11 -8 -14 8 -14 19 0 61
-36 52 -44 -2 -2 -15 -9 -27 -16 -21 -10 -27 -9 -46 9 -30 28 -46 27 -117 -10
-34 -17 -62 -29 -64 -27 -13 16 -26 53 -19 55 5 2 52 28 104 57 l95 54 13 -25
c10 -19 11 -28 1 -39z m95 -139 c12 -13 28 -43 35 -65 17 -57 0 -80 -92 -126
-39 -20 -73 -40 -75 -45 -7 -17 -20 -9 -31 19 -7 16 -11 33 -9 38 1 5 -10 21
-25 36 -37 37 -37 88 -1 117 41 32 63 26 116 -31 37 -40 51 -49 60 -40 16 16
-6 62 -30 62 -15 0 -42 36 -42 55 0 3 16 5 35 5 25 0 43 -7 59 -25z m-8219
-130 c72 -4 142 -8 157 -11 27 -5 27 -5 11 -39 -14 -30 -21 -34 -61 -37 l-44
-3 -26 -64 -26 -63 32 -29 32 -29 -18 -36 -18 -35 -147 136 c-81 75 -147 140
-147 146 0 5 7 26 15 45 15 35 15 36 62 30 27 -3 107 -8 178 -11z m8313 -67
c9 -25 9 -33 -2 -42 -8 -6 -37 -29 -66 -51 -60 -46 -52 -52 53 -37 l66 8 12
-28 c6 -16 10 -30 8 -32 -2 -2 -60 -6 -128 -8 l-124 -3 -10 29 c-10 29 -7 33
79 112 49 46 91 83 94 84 3 0 11 -14 18 -32z m174 -255 c-25 -20 -37 -16 -49
17 -10 27 -9 30 16 38 23 8 28 6 38 -17 10 -22 9 -28 -5 -38z m-70 -25 c-9 -9
-194 -78 -209 -78 -12 0 -30 47 -21 55 2 3 51 22 109 44 l104 39 12 -26 c6
-15 8 -30 5 -34z m-8572 -103 c74 -25 140 -47 147 -49 9 -4 9 -12 1 -34 l-11
-29 -151 50 c-83 27 -152 50 -153 51 -7 5 12 56 21 56 7 0 72 -20 146 -45z
m8598 8 c27 -17 52 -70 52 -111 0 -60 -67 -112 -142 -112 -52 0 -80 17 -102
64 -25 54 -21 91 17 132 48 52 117 63 175 27z m-8550 -139 c69 -18 72 -20 67
-44 -3 -14 -11 -29 -18 -35 -7 -6 -11 -28 -9 -52 4 -51 -22 -83 -68 -83 -50 0
-70 30 -70 104 0 72 -11 89 -35 52 -13 -19 -14 -29 -6 -45 29 -53 1 -89 -36
-47 -27 32 -29 62 -8 114 29 69 43 71 183 36z m8727 -104 c6 -25 4 -26 -147
-66 -84 -23 -156 -39 -160 -35 -3 3 -8 17 -10 30 -3 23 3 26 147 66 83 23 153
39 157 36 4 -3 9 -17 13 -31z m-8874 -113 c-1 -4 -1 -17 -1 -30 0 -14 -9 -26
-22 -32 -17 -7 -23 -18 -23 -40 0 -26 5 -32 42 -44 33 -12 47 -12 67 -3 30 14
36 56 9 70 -13 8 -15 16 -7 42 l9 33 32 -27 c40 -34 49 -72 28 -123 -25 -61
-74 -80 -152 -58 -41 12 -59 24 -74 48 -36 57 -6 152 52 168 28 8 41 7 40 -4z
m8790 -13 c56 -29 76 -119 37 -169 -17 -22 -72 -55 -92 -55 -2 0 -12 35 -22
78 -21 90 -26 99 -48 77 -22 -22 -21 -71 2 -87 10 -7 22 -25 26 -40 5 -23 3
-28 -12 -28 -33 0 -69 37 -82 84 -11 39 -10 49 6 83 32 65 119 92 185 57z m79
-218 c0 -11 9 -13 35 -9 27 4 35 2 35 -10 0 -8 3 -22 6 -31 4 -11 -4 -17 -30
-22 -30 -5 -36 -10 -31 -25 4 -11 2 -19 -4 -19 -5 0 -16 -3 -25 -6 -12 -4 -16
0 -16 15 0 24 3 24 -75 8 -50 -11 -61 -17 -63 -35 -2 -16 -10 -22 -27 -22 -20
0 -25 7 -31 37 -9 46 14 68 83 78 81 11 93 16 93 36 0 14 7 19 25 19 15 0 25
-6 25 -14z m-9035 -6 c3 -5 3 -21 -1 -35 -6 -23 -10 -26 -33 -20 -32 8 -30 5
-24 38 4 20 11 27 29 27 12 0 25 -4 29 -10z m173 -26 c82 -15 92 -19 92 -38 0
-41 -10 -43 -127 -22 -111 19 -113 20 -113 46 0 33 9 42 35 36 11 -3 62 -12
113 -22z m128 -155 c28 -27 37 -71 23 -123 -13 -48 -35 -76 -61 -76 -13 0 -18
7 -18 30 0 16 6 33 14 37 8 4 17 20 21 34 7 30 -15 59 -46 59 -17 0 -18 -3 -8
-21 18 -34 -4 -95 -41 -114 -57 -30 -151 -11 -184 36 -22 32 -20 85 4 109 11
11 16 20 10 20 -10 0 -14 52 -5 61 2 3 64 -3 137 -13 103 -14 137 -23 154 -39z
m8894 -71 c1 -2 7 -52 14 -113 17 -137 8 -171 -47 -199 -45 -22 -101 -15 -120
14 -11 19 -12 19 -32 -5 -14 -17 -37 -28 -74 -35 -30 -6 -59 -15 -66 -20 -17
-14 -25 -2 -25 41 0 41 2 42 78 54 54 9 66 30 57 102 l-7 55 -79 -7 -79 -7 0
36 c0 20 1 36 3 36 8 2 354 48 365 49 6 0 12 0 12 -1z m-9019 -176 c23 -21 32
-39 36 -73 10 -90 -47 -145 -139 -137 -87 9 -135 81 -108 162 18 55 52 76 121
76 50 0 63 -4 90 -28z m8885 -227 c86 -36 82 -191 -6 -209 -67 -13 -67 -13
-75 74 -7 80 -16 95 -43 68 -17 -17 -15 -73 3 -88 23 -19 15 -56 -10 -52 -31
6 -44 21 -55 64 -17 62 15 131 70 151 29 10 81 7 116 -8z m-8882 -31 c10 -4
16 -18 16 -35 0 -28 -1 -29 -53 -29 -30 0 -102 3 -160 7 l-107 6 0 29 0 28
144 0 c79 0 151 -3 160 -6z m-35 -118 c57 -30 77 -96 46 -156 -43 -83 -195
-79 -231 5 -8 19 -14 44 -14 55 0 33 28 78 58 94 35 19 105 20 141 2z m8811
-106 c0 -17 -9 -39 -20 -50 -24 -24 -26 -53 -5 -70 13 -10 17 -7 30 23 8 20
15 43 15 50 0 25 41 67 65 67 13 0 37 -11 52 -24 25 -21 28 -31 27 -80 0 -60
-19 -91 -59 -98 -17 -2 -19 2 -17 26 2 16 10 36 18 44 19 18 14 56 -7 60 -13
2 -20 -10 -29 -46 -14 -60 -41 -92 -79 -92 -57 0 -92 71 -72 148 18 66 81 99
81 42z m-8756 -156 c17 -45 10 -51 -76 -58 -91 -8 -121 -23 -102 -54 10 -14
26 -17 103 -16 l91 2 0 -34 c0 -34 0 -34 -47 -35 -27 0 -66 -3 -88 -7 -36 -7
-40 -10 -40 -37 l0 -30 91 2 92 3 4 -30 c3 -17 4 -30 4 -31 -1 -1 -54 -6 -118
-13 -98 -10 -118 -10 -123 2 -9 23 -6 52 6 52 5 0 3 10 -5 22 -21 29 -20 77 1
100 10 11 12 18 4 18 -17 0 -39 57 -33 86 8 45 49 59 213 73 9 0 20 -6 23 -15z
m8820 -65 c56 -15 86 -52 86 -105 0 -82 -39 -124 -115 -124 l-37 0 7 85 c6 73
5 85 -8 85 -35 0 -65 -68 -37 -85 6 -3 10 -22 10 -41 0 -44 -23 -45 -50 -1
-39 64 -17 156 43 182 39 17 51 18 101 4z m-61 -258 c13 -12 20 -37 23 -76 4
-65 7 -70 29 -62 17 7 21 62 5 72 -15 9 -12 65 3 65 62 0 82 -130 28 -183 -20
-20 -25 -21 -112 -10 -49 7 -97 9 -105 6 -11 -4 -13 2 -7 28 3 19 9 35 13 37
4 1 5 26 2 56 -4 49 -2 55 24 75 32 25 67 22 97 -8z m-8723 -76 c34 -37 40
-131 10 -162 -11 -13 -27 -23 -34 -23 -20 0 -28 53 -10 63 25 14 15 87 -12 87
-14 0 -20 -17 -27 -88 -7 -55 -21 -72 -64 -72 -54 0 -83 36 -83 105 0 42 5 60
20 75 11 11 24 20 29 20 14 0 23 -51 11 -65 -6 -8 -10 -26 -8 -42 4 -39 32
-37 36 2 8 100 24 125 76 125 22 0 40 -8 56 -25z m8713 -171 c90 -16 97 -19
97 -41 0 -15 -8 -27 -22 -32 -14 -5 -17 -10 -10 -15 7 -4 12 -21 12 -37 0 -27
-3 -30 -27 -27 -23 2 -29 8 -31 35 -4 42 -17 51 -93 66 -47 9 -65 18 -67 31
-6 28 6 48 25 43 10 -3 62 -13 116 -23z m-8698 -58 c41 -18 65 -61 65 -118 -1
-75 -65 -125 -149 -115 -66 7 -101 49 -101 120 0 45 4 57 29 81 46 44 100 55
156 32z m8654 -96 c19 -5 47 -22 63 -37 58 -56 22 -183 -53 -183 -22 0 -29 5
-29 19 0 20 24 51 40 51 5 0 12 10 16 22 18 57 -117 96 -137 40 -6 -16 -4 -27
9 -40 19 -19 16 -62 -5 -69 -15 -5 -52 35 -59 64 -9 36 4 88 29 110 37 34 68
40 126 23z m-8570 -197 c48 -36 65 -70 69 -136 3 -53 0 -67 -20 -97 -32 -47
-79 -77 -145 -90 -122 -26 -211 28 -229 137 -9 60 2 107 35 142 37 40 57 39
65 -1 5 -24 1 -37 -14 -53 -31 -34 -27 -90 11 -127 28 -28 34 -30 82 -25 133
13 195 99 125 175 -12 12 -31 22 -44 22 -17 0 -24 9 -32 41 l-10 41 40 -5 c23
-3 53 -14 67 -24z m8542 -67 c148 -45 165 -56 140 -95 -7 -11 -16 -11 -56 2
l-46 16 6 -28 c8 -37 -8 -76 -40 -97 -24 -16 -30 -15 -120 11 -81 24 -95 31
-95 49 0 45 11 47 97 19 68 -22 84 -25 97 -14 20 17 20 45 1 65 -9 8 -48 25
-86 36 -54 16 -69 25 -65 36 3 9 6 22 6 30 0 8 4 14 8 14 5 0 73 -20 153 -44z
m-4031 -2423 c0 -15 -45 -53 -62 -53 -21 0 -21 1 -8 34 7 20 16 26 40 26 16 0
30 -3 30 -7z m-63 -69 c-3 -3 -12 -4 -19 -1 -8 3 -5 6 6 6 11 1 17 -2 13 -5z"/>
<path d="M5350 9791 c-5 -11 -10 -34 -10 -51 0 -17 5 -40 10 -51 15 -27 64
-25 84 3 20 29 20 82 0 102 -22 23 -71 20 -84 -3z"/>
<path d="M5640 9780 c-29 -29 -27 -94 2 -114 29 -20 34 -20 58 4 26 26 27 90
2 113 -24 22 -38 21 -62 -3z"/>
<path d="M5890 9755 c-17 -20 -12 -24 43 -31 37 -5 47 -4 47 8 0 36 -65 53
-90 23z"/>
<path d="M4616 9744 c-28 -28 -19 -37 32 -29 55 8 56 9 49 30 -8 20 -61 20
-81 -1z"/>
<path d="M4252 9678 c-6 -6 -12 -19 -12 -29 0 -14 6 -15 45 -6 33 8 45 15 43
26 -4 20 -58 27 -76 9z"/>
<path d="M6407 9653 c-8 -10 -18 -30 -22 -45 -22 -89 80 -115 107 -27 9 32 8
42 -6 64 -19 29 -56 33 -79 8z"/>
<path d="M7017 9560 c-53 -42 -84 -150 -57 -201 13 -23 61 -49 92 -49 63 0
128 85 128 169 0 85 -97 133 -163 81z"/>
<path d="M3407 9382 c-15 -16 -24 -52 -13 -52 2 0 25 9 50 21 39 17 45 23 35
35 -16 20 -53 18 -72 -4z"/>
<path d="M5180 9393 c-378 -9 -756 -74 -1138 -195 l-164 -52 7 -44 c8 -51 54
-101 94 -103 24 -1 23 -2 -6 -9 -54 -13 -80 -54 -89 -140 -6 -60 -9 -69 -15
-45 -4 17 -7 49 -8 73 -1 34 -8 50 -34 76 -17 19 -43 36 -57 39 -25 4 -25 4 2
6 17 0 34 10 44 26 9 14 22 25 29 25 7 0 16 7 19 16 7 17 8 74 2 74 -11 0
-267 -109 -361 -154 -416 -198 -851 -514 -1177 -854 -630 -659 -1012 -1470
-1123 -2382 -23 -184 -31 -577 -16 -770 88 -1157 639 -2203 1536 -2918 150
-119 159 -125 113 -76 -21 22 -38 45 -38 51 0 6 74 29 168 52 446 107 1216
213 1537 212 233 -1 264 0 225 8 -138 28 833 35 1175 9 116 -9 273 -20 350
-23 272 -12 790 -77 1075 -135 158 -32 446 -105 459 -116 13 -12 -194 -171
-351 -270 -107 -67 -350 -193 -498 -259 -47 -21 -89 -42 -95 -47 -16 -15 86
27 228 95 999 478 1776 1357 2126 2406 89 266 157 574 193 876 21 174 17 734
-5 910 -65 498 -189 918 -397 1340 -482 981 -1343 1736 -2375 2083 -462 156
-937 227 -1435 215z m694 -124 c-3 -5 -10 -7 -15 -3 -5 3 -7 10 -3 15 3 5 10
7 15 3 5 -3 7 -10 3 -15z m336 -119 c0 -5 -4 -10 -9 -10 -6 0 -13 5 -16 10 -3
6 1 10 9 10 9 0 16 -4 16 -10z m-730 -10 c0 -5 -7 -10 -16 -10 -8 0 -12 5 -9
10 3 6 10 10 16 10 5 0 9 -4 9 -10z m911 -143 c-1 -12 -15 -9 -19 4 -3 6 1 10
8 8 6 -3 11 -8 11 -12z m1243 -468 c-3 -5 -10 -7 -15 -3 -5 3 -7 10 -3 15 3 5
10 7 15 3 5 -3 7 -10 3 -15z m-1825 -231 l1 -78 33 -14 c35 -14 87 -69 87 -91
0 -18 22 -25 88 -26 l57 -2 -70 -10 c-69 -9 -70 -10 -90 -51 -15 -30 -32 -46
-62 -61 l-43 -19 -1 -76 c-1 -41 -4 -113 -8 -160 l-8 -85 -1 101 c-1 56 -5
128 -8 161 -6 58 -8 60 -48 79 -29 14 -47 31 -61 60 -19 41 -22 42 -85 52
l-65 9 55 2 c62 2 74 7 84 38 9 28 71 83 95 83 22 0 30 60 33 229 l1 106 8
-85 c4 -47 7 -120 8 -162z m-1119 132 c0 -5 -4 -10 -10 -10 -5 0 -10 5 -10 10
0 6 5 10 10 10 6 0 10 -4 10 -10z m-1176 -101 c-3 -5 -10 -7 -15 -3 -5 3 -7
10 -3 15 3 5 10 7 15 3 5 -3 7 -10 3 -15z m3646 -56 c33 -6 33 -6 -21 -20
-178 -45 -256 -242 -154 -393 l33 -50 -26 14 c-34 18 -85 72 -105 111 -26 52
-30 109 -13 170 37 124 156 194 286 168z m-2924 -103 c-21 -105 -109 -212
-272 -327 -227 -161 -401 -232 -475 -193 -23 13 -25 59 -5 99 20 38 147 156
218 202 107 69 238 103 238 62 0 -14 2 -14 20 2 28 25 26 53 -5 61 -61 15
-191 -44 -356 -162 -144 -104 -280 -267 -298 -358 -9 -40 -25 -40 -29 -1 -2
20 11 58 37 111 47 93 122 175 243 265 140 104 435 235 511 227 29 -3 32 -7
35 -38 4 -48 -41 -115 -127 -187 -158 -134 -330 -210 -359 -157 -8 14 -10 14
-21 0 -25 -30 -9 -51 43 -54 38 -3 63 4 120 31 170 82 389 272 442 384 31 67
50 82 40 33z m-1396 -40 c0 -5 -4 -10 -10 -10 -5 0 -10 5 -10 10 0 6 5 10 10
10 6 0 10 -4 10 -10z m3810 -73 c-82 -41 -111 -143 -63 -217 l17 -25 -25 16
c-30 20 -59 75 -59 114 0 66 72 135 140 135 l35 -1 -45 -22z m1330 -108 l65
-23 -91 -12 c-188 -24 -310 -80 -429 -199 -129 -130 -185 -258 -192 -445 -4
-87 -1 -131 11 -180 34 -132 129 -293 212 -356 19 -15 33 -29 31 -31 -8 -7
-108 37 -165 73 -193 122 -304 324 -304 554 0 112 17 181 69 290 61 127 160
228 284 289 126 61 173 71 319 67 99 -3 138 -8 190 -27z m-4830 -109 c0 -5 -4
-10 -10 -10 -5 0 -10 5 -10 10 0 6 5 10 10 10 6 0 10 -4 10 -10z m4915 -220
c3 -5 -1 -10 -9 -10 -9 0 -16 5 -16 10 0 6 4 10 9 10 6 0 13 -4 16 -10z
m-5655 -220 c0 -5 -4 -10 -10 -10 -5 0 -10 5 -10 10 0 6 5 10 10 10 6 0 10 -4
10 -10z m168 -168 c12 -12 31 -22 42 -22 11 0 20 -4 20 -10 0 -5 -9 -10 -20
-10 -12 0 -32 -12 -45 -27 -19 -22 -24 -39 -25 -83 0 -39 -3 -51 -10 -40 -5 8
-10 34 -10 57 0 48 -33 93 -69 93 -12 0 -19 4 -16 10 3 6 13 10 22 10 29 0 63
43 63 80 0 19 4 46 8 60 5 19 8 11 12 -35 4 -44 11 -66 28 -83z m2121 -74 c1
-31 43 -78 71 -78 10 0 22 -4 25 -10 3 -6 -4 -10 -18 -10 -43 0 -74 -47 -83
-125 l-8 -70 -7 69 c-6 55 -13 74 -35 97 -15 15 -38 30 -53 32 l-26 3 28 8
c53 16 77 51 84 124 7 65 7 66 14 27 5 -22 8 -52 8 -67z m-649 66 c0 -8 -4
-12 -10 -9 -5 3 -10 10 -10 16 0 5 5 9 10 9 6 0 10 -7 10 -16z m-410 -24 c0
-5 -4 -10 -10 -10 -5 0 -10 5 -10 10 0 6 5 10 10 10 6 0 10 -4 10 -10z m2690
-320 c0 -5 -4 -10 -10 -10 -5 0 -10 5 -10 10 0 6 5 10 10 10 6 0 10 -4 10 -10z
m2270 -15 c0 -8 -4 -15 -10 -15 -5 0 -10 7 -10 15 0 8 5 15 10 15 6 0 10 -7
10 -15z m-5830 -5 c0 -5 -4 -10 -10 -10 -5 0 -10 5 -10 10 0 6 5 10 10 10 6 0
10 -4 10 -10z m-556 -51 c-3 -5 -10 -7 -15 -3 -5 3 -7 10 -3 15 3 5 10 7 15 3
5 -3 7 -10 3 -15z m2817 1 c130 -13 203 -31 332 -82 340 -132 613 -350 803
-643 172 -266 248 -558 215 -831 -10 -84 -39 -228 -57 -285 -4 -15 10 -16 133
-11 260 9 726 -28 1058 -84 300 -50 468 -102 720 -223 286 -138 415 -249 415
-357 0 -93 -111 -152 -365 -195 -151 -26 -580 -37 -755 -20 -317 31 -770 158
-928 261 -103 66 -114 134 -34 200 64 52 119 65 287 65 83 0 173 -3 200 -7
l50 -7 -39 15 c-135 49 -414 64 -576 31 -152 -32 -260 -95 -260 -152 0 -135
462 -368 920 -463 371 -78 846 -128 1318 -139 150 -3 271 -8 269 -10 -2 -1
-53 -11 -113 -20 -153 -23 -613 -23 -859 1 -415 39 -648 70 -855 112 -492 101
-821 252 -940 432 l-15 22 -75 -40 c-210 -112 -532 -151 -765 -91 -286 74
-509 303 -586 601 -19 73 -21 102 -16 205 6 136 23 209 71 311 83 176 216 256
425 255 116 0 118 6 12 39 -122 38 -265 23 -380 -42 -110 -63 -250 -225 -318
-368 -49 -101 -72 -317 -54 -479 22 -185 72 -325 168 -469 167 -252 463 -435
828 -513 167 -35 444 -23 625 28 122 34 281 95 355 137 168 95 158 91 144 65
-19 -36 -120 -132 -187 -177 -277 -189 -716 -292 -1007 -237 -469 88 -911 397
-1060 742 -36 82 -45 95 -45 67 0 -30 -77 -162 -136 -236 -137 -170 -343 -278
-507 -266 -51 4 -64 9 -85 33 -27 32 -27 40 -2 265 23 207 -16 317 -137 383
-52 28 -326 110 -572 172 -79 20 -161 45 -182 55 -21 11 -41 20 -45 20 -4 0
-4 -22 0 -50 4 -28 3 -50 -2 -50 -5 0 -23 -3 -39 -6 -30 -6 -31 -4 -91 108
-45 84 -76 128 -122 173 -67 65 -128 147 -177 236 -107 193 -77 413 74 550
157 142 496 245 868 264 374 19 680 94 980 240 120 57 190 101 420 261 160
111 341 185 495 203 41 5 80 9 86 10 7 0 58 -4 115 -9z m2669 0 c0 -5 -7 -10
-16 -10 -8 0 -12 5 -9 10 3 6 10 10 16 10 5 0 9 -4 9 -10z m-4070 -164 c0 -54
23 -84 77 -104 28 -10 28 -10 3 -11 -14 -1 -37 -14 -53 -30 -22 -24 -27 -38
-27 -80 0 -27 -4 -53 -10 -56 -6 -4 -10 15 -10 50 0 49 -4 60 -29 86 -16 16
-40 29 -53 30 -21 1 -21 1 5 11 16 5 39 21 53 34 20 21 24 35 24 87 0 44 3 58
10 47 5 -8 10 -37 10 -64z m-2020 -216 c0 -5 -4 -10 -10 -10 -5 0 -10 5 -10
10 0 6 5 10 10 10 6 0 10 -4 10 -10z m1026 -27 c-10 -10 -19 5 -10 18 6 11 8
11 12 0 2 -7 1 -15 -2 -18z m454 -133 c0 -5 -4 -10 -10 -10 -5 0 -10 5 -10 10
0 6 5 10 10 10 6 0 10 -4 10 -10z m4610 -10 c0 -5 -7 -10 -15 -10 -8 0 -15 5
-15 10 0 6 7 10 15 10 8 0 15 -4 15 -10z m1508 -448 c31 -31 50 -42 72 -42 17
0 30 -4 30 -10 0 -5 -14 -10 -30 -10 -23 0 -41 -11 -72 -42 -42 -43 -42 -43
-48 -138 l-6 -95 -8 101 c-8 94 -10 103 -32 113 -14 6 -29 22 -36 36 -9 19
-19 25 -45 25 -18 0 -33 5 -33 10 0 6 15 10 33 10 26 0 36 6 45 25 7 14 23 30
36 36 22 10 25 19 32 113 l9 101 5 -95 5 -95 43 -43z m-2038 208 c0 -5 -4 -10
-10 -10 -5 0 -10 5 -10 10 0 6 5 10 10 10 6 0 10 -4 10 -10z m710 -350 c0 -5
-7 -10 -16 -10 -8 0 -12 5 -9 10 3 6 10 10 16 10 5 0 9 -4 9 -10z m980 -120
c0 -5 -4 -10 -10 -10 -5 0 -10 5 -10 10 0 6 5 10 10 10 6 0 10 -4 10 -10z m30
-240 c0 -5 -4 -10 -10 -10 -5 0 -10 5 -10 10 0 6 5 10 10 10 6 0 10 -4 10 -10z
m-740 -80 c0 -5 -7 -10 -15 -10 -8 0 -15 5 -15 10 0 6 7 10 15 10 8 0 15 -4
15 -10z m640 -30 c0 -5 -7 -10 -16 -10 -8 0 -12 5 -9 10 3 6 10 10 16 10 5 0
9 -4 9 -10z m-6980 -20 c0 -5 -4 -10 -10 -10 -5 0 -10 5 -10 10 0 6 5 10 10
10 6 0 10 -4 10 -10z m304 -201 c-3 -5 -10 -7 -15 -3 -5 3 -7 10 -3 15 3 5 10
7 15 3 5 -3 7 -10 3 -15z m6846 -19 c0 -5 -4 -10 -10 -10 -5 0 -10 5 -10 10 0
6 5 10 10 10 6 0 10 -4 10 -10z m300 -200 c0 -5 -4 -10 -10 -10 -5 0 -10 5
-10 10 0 6 5 10 10 10 6 0 10 -4 10 -10z m-7850 -235 c0 -8 -4 -15 -10 -15 -5
0 -10 7 -10 15 0 8 5 15 10 15 6 0 10 -7 10 -15z m1030 -125 c0 -5 -4 -10 -10
-10 -5 0 -10 5 -10 10 0 6 5 10 10 10 6 0 10 -4 10 -10z m-5 -260 c-3 -5 -10
-10 -16 -10 -5 0 -9 5 -9 10 0 6 7 10 16 10 8 0 12 -4 9 -10z m6435 -61 c0 -5
-4 -9 -10 -9 -5 0 -10 7 -10 16 0 8 5 12 10 9 6 -3 10 -10 10 -16z m-7196 -10
c-3 -5 -10 -7 -15 -3 -5 3 -7 10 -3 15 3 5 10 7 15 3 5 -3 7 -10 3 -15z m646
-59 c0 -5 -4 -10 -10 -10 -5 0 -10 5 -10 10 0 6 5 10 10 10 6 0 10 -4 10 -10z
m170 -190 c0 -5 -7 -10 -16 -10 -8 0 -12 5 -9 10 3 6 10 10 16 10 5 0 9 -4 9
-10z m2080 -70 c0 -5 -4 -10 -10 -10 -5 0 -10 5 -10 10 0 6 5 10 10 10 6 0 10
-4 10 -10z m2436 -180 c13 -5 29 -21 35 -34 8 -18 24 -27 58 -34 l46 -10 -43
-1 c-35 -1 -44 -5 -54 -27 -7 -14 -25 -32 -40 -40 -27 -14 -28 -17 -26 -82 2
-63 2 -64 5 -14 2 30 9 52 15 52 23 0 107 -99 136 -161 76 -161 67 -365 -23
-501 l-26 -38 -419 2 c-231 2 -420 0 -420 -3 0 -4 21 -26 48 -51 98 -92 192
-127 367 -138 l110 -7 -115 -1 c-181 -3 -290 37 -396 142 -94 95 -144 220
-144 361 1 240 138 425 365 491 124 36 361 9 421 -47 11 -10 26 -19 32 -19 8
0 13 -21 14 -57 l2 -58 3 52 c4 50 2 53 -42 97 -34 35 -54 46 -78 47 -30 1
-30 2 10 11 28 6 44 16 48 29 4 10 20 26 36 34 27 14 29 19 29 74 0 32 3 74 8
92 5 26 8 11 10 -59 3 -88 4 -93 28 -102z m-4155 17 c-13 -13 -26 -3 -16 12 3
6 11 8 17 5 6 -4 6 -10 -1 -17z m6009 -37 c0 -5 -4 -10 -10 -10 -5 0 -10 5
-10 10 0 6 5 10 10 10 6 0 10 -4 10 -10z m-5890 -83 c52 -9 132 -27 178 -42
l82 -26 0 -115 0 -114 -58 29 c-89 45 -164 64 -230 57 -84 -8 -92 -10 -92 -16
0 -3 -15 -11 -34 -18 -57 -21 -114 -69 -146 -124 -25 -44 -30 -64 -30 -119 0
-119 70 -213 190 -256 28 -10 50 -21 50 -25 0 -14 125 -8 181 8 30 9 80 29
112 45 l57 29 0 -50 0 -50 -137 0 c-76 -1 -252 -1 -391 0 -248 1 -253 1 -243
-19 17 -31 91 -90 153 -122 66 -33 123 -48 228 -59 l75 -7 -75 -1 c-331 -6
-554 252 -510 591 29 224 188 380 425 416 67 10 80 10 215 -12z m1858 14 c9
-5 53 -18 97 -31 44 -12 94 -29 110 -39 30 -17 30 -18 33 -114 1 -53 0 -97 -3
-97 -3 0 -38 17 -78 37 -67 35 -78 37 -151 35 -92 -2 -126 -18 -126 -60 0 -38
7 -46 75 -86 32 -20 55 -36 49 -36 -5 0 29 -23 76 -51 47 -27 100 -64 118 -82
65 -62 90 -143 72 -230 l-10 -52 -320 1 -320 1 0 -43 c0 -23 -2 -49 -6 -57
-11 -30 159 -82 316 -97 l85 -7 -95 -1 c-99 -2 -177 12 -273 48 l-57 21 0 135
0 134 93 -49 c133 -72 266 -89 301 -40 7 11 15 17 17 14 3 -2 5 8 4 23 0 37
-30 60 -165 125 -133 64 -185 105 -224 177 -94 173 8 380 206 419 59 12 155
13 176 2z m-893 -17 l50 -6 69 -166 c121 -292 233 -568 240 -590 7 -22 6 -22
-113 -22 -69 0 -122 4 -126 10 -3 6 -28 10 -56 10 -27 0 -49 -4 -49 -10 0 -6
-58 -10 -154 -10 -111 0 -156 -3 -163 -12 -6 -7 -25 -52 -44 -99 l-33 -86 -81
-7 c-44 -3 -115 -6 -159 -6 -70 0 -78 2 -73 18 6 21 402 944 417 973 11 20 17
20 118 15 59 -3 130 -8 157 -12z m1978 1 l217 -6 0 -109 0 -110 -170 0 -170 0
0 -234 c0 -128 -3 -254 -6 -280 l-7 -47 -123 3 -122 3 -6 -35 c-3 -19 -6 -61
-6 -92 0 -53 2 -58 23 -59 12 -1 72 -5 132 -9 l110 -7 -142 -1 -143 -2 0 370
0 370 -170 0 -170 0 0 130 0 131 268 -6 c147 -2 365 -7 485 -10z m1925 -1 c4
-6 21 -15 39 -18 45 -10 122 -68 155 -117 63 -93 72 -198 25 -289 -21 -40 -85
-101 -118 -112 -8 -3 4 -20 31 -44 29 -26 56 -65 81 -119 l38 -80 -136 -3
c-149 -3 -142 1 -119 -67 4 -11 -9 12 -28 52 -71 148 -118 193 -201 193 l-35
0 0 -188 0 -189 -97 -6 c-54 -4 -122 -7 -150 -7 l-53 0 0 506 0 506 280 -4
c194 -2 283 -6 288 -14z m432 -29 c0 -8 -4 -15 -10 -15 -5 0 -10 7 -10 15 0 8
5 15 10 15 6 0 10 -7 10 -15z"/>
<path d="M4859 6569 c-204 -17 -384 -79 -779 -269 -528 -254 -780 -335 -1231
-395 -107 -15 -223 -33 -259 -41 -152 -35 -302 -141 -357 -252 -58 -119 -29
-235 88 -349 159 -156 344 -236 719 -313 238 -49 311 -70 400 -115 122 -62
173 -141 191 -292 17 -145 19 -152 39 -163 14 -8 29 -7 54 4 87 36 178 180
191 301 15 134 -73 324 -201 437 -17 15 -55 63 -85 105 -29 43 -57 81 -62 84
-4 3 -14 24 -22 45 -21 59 -4 78 72 82 98 5 220 -50 319 -143 41 -39 44 -41
44 -21 0 26 89 228 136 310 91 158 227 312 345 393 174 120 393 173 629 152
115 -9 162 -20 268 -57 221 -78 381 -244 459 -477 24 -72 27 -95 27 -225 1
-137 -1 -150 -30 -230 -71 -200 -212 -329 -410 -376 -38 -9 -91 -14 -117 -11
l-49 4 29 -28 c18 -19 50 -34 93 -45 158 -40 381 27 529 161 223 202 272 736
102 1100 -95 202 -223 327 -478 468 -230 127 -430 174 -654 156z m-2255 -1010
c12 -6 30 -24 40 -40 14 -24 24 -29 59 -30 l42 -2 -47 -10 c-31 -7 -50 -17
-53 -28 -4 -10 -19 -28 -36 -39 -28 -21 -29 -24 -30 -108 -2 -99 -16 -71 -18
34 -1 55 -4 62 -26 72 -14 7 -30 22 -36 36 -8 16 -24 27 -53 34 l-41 10 36 1
c29 1 42 8 63 36 15 19 34 35 42 35 10 0 14 14 14 58 0 31 4 75 8 97 6 32 8
22 10 -53 3 -86 5 -94 26 -103z"/>
<path d="M6310 4927 c0 -4 -11 -35 -24 -70 l-23 -63 223 4 c426 8 785 -45
1156 -169 164 -55 279 -111 333 -163 54 -52 58 -81 15 -129 -60 -68 -169 -96
-385 -98 l-130 -1 55 -14 c30 -8 97 -18 149 -24 178 -19 438 24 565 93 53 29
61 38 64 66 12 123 -472 353 -956 455 -203 43 -606 91 -934 112 -60 4 -108 4
-108 1z"/>
<path d="M6587 3217 c-20 -6 -53 -25 -72 -40 -125 -100 -104 -335 37 -409 34
-17 62 -22 131 -23 48 -1 87 2 87 6 0 5 6 6 14 3 24 -9 103 71 120 123 20 59
20 158 1 214 -16 44 -63 101 -99 121 -29 16 -176 19 -219 5z"/>
<path d="M3766 3025 c-32 -86 -57 -157 -55 -159 2 -2 63 -6 135 -8 l131 -4 -9
28 c-6 15 -14 28 -19 28 -4 0 -5 7 -2 17 5 12 3 14 -7 8 -8 -5 -11 -3 -8 6 3
8 -2 20 -9 28 -8 7 -12 20 -9 27 3 8 2 14 -3 14 -4 0 -23 38 -41 85 -18 47
-36 85 -39 85 -3 0 -33 -70 -65 -155z"/>
<path d="M3333 2631 c-13 -29 -33 -71 -44 -92 l-20 -40 137 3 136 3 29 80 c16
44 29 83 29 87 0 4 -55 8 -122 10 l-121 3 -24 -54z"/>
<path d="M7574 3257 c-3 -8 -3 -56 -2 -108 l3 -94 35 -3 c19 -2 59 -1 89 3 72
9 101 38 101 98 0 80 -52 117 -168 117 -34 0 -54 -5 -58 -13z"/>
<path d="M7296 2635 c-3 -27 -6 -69 -6 -92 l0 -43 130 0 130 0 0 89 0 90 -124
3 -124 3 -6 -50z"/>
<path d="M7285 2000 c17 -4 39 -8 50 -8 16 0 15 2 -5 8 -14 4 -36 8 -50 8 -22
0 -22 -1 5 -8z"/>
<path d="M7368 1983 c6 -2 18 -2 25 0 6 3 1 5 -13 5 -14 0 -19 -2 -12 -5z"/>
<path d="M7438 1973 c7 -3 16 -2 19 1 4 3 -2 6 -13 5 -11 0 -14 -3 -6 -6z"/>
<path d="M6102 1798 c3 -7 13 -14 24 -15 10 -1 35 -4 54 -7 33 -6 33 -6 -10
13 -53 23 -73 26 -68 9z"/>
<path d="M5918 1773 c7 -3 16 -2 19 1 4 3 -2 6 -13 5 -11 0 -14 -3 -6 -6z"/>
<path d="M6358 1773 c7 -3 16 -2 19 1 4 3 -2 6 -13 5 -11 0 -14 -3 -6 -6z"/>
<path d="M6260 1740 c0 -5 5 -10 10 -10 6 0 10 5 10 10 0 6 -4 10 -10 10 -5 0
-10 -4 -10 -10z"/>
<path d="M6310 1724 c0 -10 34 -33 49 -34 8 0 2 9 -12 20 -26 21 -37 25 -37
14z"/>
<path d="M6160 1705 c0 -2 9 -9 20 -15 24 -13 50 -2 29 11 -15 9 -49 12 -49 4z"/>
<path d="M6235 1690 c4 -6 11 -8 16 -5 14 9 11 15 -7 15 -8 0 -12 -5 -9 -10z"/>
<path d="M6708 1653 c7 -3 16 -2 19 1 4 3 -2 6 -13 5 -11 0 -14 -3 -6 -6z"/>
<path d="M6360 1640 c8 -5 24 -9 35 -9 l20 0 -20 9 c-11 5 -27 9 -35 9 -13 1
-13 0 0 -9z"/>
<path d="M6920 1630 c0 -6 7 -10 15 -10 8 0 15 2 15 4 0 2 -7 6 -15 10 -8 3
-15 1 -15 -4z"/>
<path d="M6475 1620 c3 -5 18 -10 33 -9 24 0 25 1 7 9 -28 12 -47 12 -40 0z"/>
<path d="M6595 1600 c3 -5 14 -10 23 -10 15 0 15 2 2 10 -20 13 -33 13 -25 0z"/>
<path d="M3880 1501 c0 -5 -3 -18 -7 -28 -5 -15 -4 -16 8 -7 9 8 28 9 54 4 32
-6 35 -8 12 -9 -39 -1 -24 -21 17 -21 35 0 86 -20 86 -34 0 -5 6 -3 14 3 12
10 12 16 -2 41 -17 30 -26 33 -149 54 -18 3 -33 1 -33 -3z"/>
<path d="M4130 1442 c0 -15 21 -19 55 -11 20 4 23 7 10 8 -11 1 -30 4 -42 7
-13 4 -23 2 -23 -4z"/>
<path d="M6770 1440 c-8 -5 -10 -10 -5 -10 6 0 17 5 25 10 8 5 11 10 5 10 -5
0 -17 -5 -25 -10z"/>
<path d="M3840 1427 c3 -3 59 -24 124 -46 91 -31 121 -38 127 -29 6 9 10 8 14
-4 4 -10 13 -14 21 -11 13 5 12 9 -5 27 -20 21 -65 27 -89 12 -9 -6 -98 20
-117 34 -12 9 -82 25 -75 17z"/>
<path d="M6170 1319 c0 -6 7 -9 15 -5 8 3 15 1 15 -4 0 -6 7 -10 16 -10 14 0
14 3 4 15 -14 17 -50 20 -50 4z"/>
<path d="M7311 9294 c-38 -48 -21 -114 29 -114 24 0 60 49 60 83 0 60 -52 78
-89 31z"/>
<path d="M7924 8825 c-15 -39 49 -60 80 -27 15 18 15 19 -9 30 -36 16 -64 15
-71 -3z"/>
<path d="M2220 8581 c-16 -31 -12 -47 19 -80 33 -35 60 -39 84 -13 24 27 21
50 -12 83 -34 34 -75 38 -91 10z"/>
<path d="M8294 8515 c-14 -36 59 -63 85 -31 9 10 6 17 -13 30 -32 20 -65 21
-72 1z"/>
<path d="M2042 8418 c-13 -13 -17 -68 -4 -68 14 0 73 66 66 73 -12 11 -49 8
-62 -5z"/>
<path d="M8708 8194 c-27 -14 -48 -42 -48 -63 0 -16 38 -51 54 -51 28 0 76 50
76 79 0 49 -32 63 -82 35z"/>
<path d="M1620 7760 c-16 -38 -7 -62 22 -58 27 4 37 50 17 74 -17 21 -25 18
-39 -16z"/>
<path d="M1284 7365 c-15 -23 -15 -27 -1 -49 21 -32 79 -51 107 -36 33 18 27
66 -12 90 -44 27 -74 25 -94 -5z"/>
<path d="M9250 7245 c-10 -12 -9 -20 4 -40 17 -26 40 -31 66 -15 12 8 10 14
-15 40 -33 34 -38 36 -55 15z"/>
<path d="M1090 7081 c30 -28 58 -51 61 -51 9 0 43 79 37 86 -3 3 -39 7 -79 10
l-74 5 55 -50z"/>
<path d="M9516 6689 c-44 -34 -26 -99 27 -99 37 0 87 37 87 64 0 54 -64 74
-114 35z"/>
<path d="M1036 6545 c-12 -31 -6 -64 13 -74 42 -23 56 49 15 76 -19 12 -22 12
-28 -2z"/>
<path d="M9684 6298 c9 -55 23 -69 42 -44 16 22 10 55 -14 74 -28 21 -35 14
-28 -30z"/>
<path d="M836 5944 c-41 -40 -6 -86 62 -82 36 2 46 7 53 26 19 50 -75 96 -115
56z"/>
<path d="M9822 5811 c-10 -6 -11 -22 -6 -62 9 -76 18 -89 59 -89 47 0 59 25
50 101 l-7 59 -41 0 c-23 0 -48 -4 -55 -9z"/>
<path d="M812 5684 c-28 -20 -30 -69 -3 -84 11 -5 38 -10 60 -10 32 0 44 5 56
24 38 58 -52 113 -113 70z"/>
<path d="M9800 5400 c0 -55 11 -63 36 -25 15 23 15 27 0 50 -25 38 -36 30 -36
-25z"/>
<path d="M791 5296 c-7 -8 -11 -27 -9 -43 6 -56 101 -68 134 -17 15 22 15 26
0 49 -14 21 -24 25 -65 25 -30 0 -53 -5 -60 -14z"/>
<path d="M9780 4910 c0 -54 7 -61 33 -32 20 22 22 53 5 70 -26 26 -38 13 -38
-38z"/>
<path d="M9657 4724 c-15 -15 -6 -53 15 -68 37 -26 45 -20 39 27 -5 32 -11 43
-26 45 -12 2 -24 0 -28 -4z"/>
<path d="M914 4387 c-22 -19 -26 -29 -20 -51 9 -35 43 -48 91 -35 48 13 65 48
41 84 -22 33 -74 34 -112 2z"/>
</g>
</svg>
